# xmcd
#
# Track frame offsets:
#	150
#	23726
#	42749
#	55046
#	67547
#	80207
#	97483
#	120415
#	144650
#	160805
#	173226
#	190864
#	214697
#	236393
#	264272
#	279261
#	302256
#
# Disc length: 4328
#
# Revision: 3
# Processed by: cddbd v1.5.1PL0 Copyright (c) Steve Scherf et al.
# Submitted via: EZCDDA 4.3.2
# Normalized: r2:TDELIM( - )
#
DISCID=e210e611
DTITLE=Taj Mahal - Oh Susanna
DYEAR=1900
DGENRE=
TTITLE0=Taj Mahal - Oh Susanna
TTITLE1=Taj Mahal - The Car Of Your Dreams
TTITLE2=Taj Mahal - The Hustle Is On
TTITLE3=Taj Mahal - We're Gonna Make It
TTITLE4=Taj Mahal - What Am I Living For
TTITLE5=Taj Mahal - You've Got To Love Her With A Feeling
TTITLE6=Taj Mahal and Jimmy Smith - Dot Com Blues
TTITLE7=Taj Mahal and Robben Ford - Rainy Day, Dream Away
TTITLE8=Taj Mahal and Ry Cooder - By and by
TTITLE9=Taj Mahal and Ry Cooder - Tulsa County
TTITLE10=Taj Mahal and Sam Moore, Joe Morton - John The Revelator
TTITLE11=Taj Mahal and The Hula Blues Band - Sacred Island Moku La'a
TTITLE12=Taj Mahal and The Hula Blues Band - The New Hula Blues
TTITLE13=Taj Mahal and Toumani Diabate - Guede Man Na
TTITLE14=Taj Mahal and Toumani Diabate - Mississippi Mali Blues
TTITLE15=Taj Mahal and Toumani Diabate - Queen Bee
TTITLE16=Taj Mahal and Toumani Diabate - Take This Hammer
EXTD=
EXTT0=
EXTT1=
EXTT2=
EXTT3=
EXTT4=
EXTT5=
EXTT6=
EXTT7=
EXTT8=
EXTT9=
EXTT10=
EXTT11=
EXTT12=
EXTT13=
EXTT14=
EXTT15=
EXTT16=
PLAYORDER=
